<?xml version="1.0" standalone="no"?>
<!DOCTYPE svg PUBLIC "-//W3C//DTD SVG 20010904//EN"
 "http://www.w3.org/TR/2001/REC-SVG-20010904/DTD/svg10.dtd">
<svg version="1.0" xmlns="http://www.w3.org/2000/svg"
 width="16.000000pt" height="16.000000pt" viewBox="0 0 16.000000 16.000000"
 preserveAspectRatio="xMidYMid meet">

<g transform="translate(0.000000,16.000000) scale(0.100000,-0.100000)"
fill="#000000" stroke="none">
<path d="M60 127 c0 -9 -9 -36 -20 -61 -15 -36 -16 -46 -6 -46 8 0 13 8 12 18
-1 12 6 17 24 17 18 0 25 -5 24 -17 -1 -13 5 -18 21 -18 l24 0 -24 58 c-21 53
-55 83 -55 49z m24 -42 c3 -9 0 -15 -9 -15 -8 0 -15 7 -15 15 0 8 4 15 9 15 5
0 11 -7 15 -15z"/>
</g>
</svg>
